        <svg
          id="icon"
          xmlns="http://www.w3.org/2000/svg"
          width="168.609"
          height="137.286"
          viewBox="0 0 168.609 137.286"
        >
          <path
            id="Tracé_25"
            data-name="Tracé 25"
            d="M137.934,78.683c-.043-33.3,29.3-48.825,49.934-49.181,12.512-.213,20.716,3.455,21.313,4.692.526,1.081-2.559,6.185-19.379,22.28C173.664,71.93,151.327,86.2,140.55,86.532c-3.441.1-2.6-3.867-2.616-7.848"
            transform="translate(-137.854 -29.494)"
            fill="#fac500"
          />
          <path
            id="Tracé_26"
            data-name="Tracé 26"
            d="M143.006,102.795c.483-.384,2.332-.37,6.6-.37,5.773,0,13.977-2.261,24.953-9.014,8.716-5.36,20.275-16.081,43.707-40.65C234.33,35.912,247.681,29.5,262.155,29.5c13.721,0,24.74,6.654,32.46,20.759.839,1.536.54,1.877-.853,2.161-4.209.853-7.891,1.28-14.759,4.479-6.057,2.815-13.65,7.266-29.034,22.763-11.943,12.029-20.872,22.678-30.839,30.512s-27.91,17.005-45.427,17.005c-12.2,0-22.65-9.228-30.854-22.763-.626-1.066.014-1.521.156-1.621"
            transform="translate(-135.86 -29.491)"
            fill="red"
          />
          <path
            id="Tracé_27"
            data-name="Tracé 27"
            d="M293.179,55.36c1.337,2.431,2.09,5.09,2.09,10.194,0,9.867-11.559,34.749-29.958,54.854-15.071,16.479-40.394,35.46-54.171,35.46-6.882,0-22.806-9.128-32.645-15.626-6.085-4.01-8.232-4.848-13.621-9.37-.91-.768-.5-2.076.9-1.948,2.886.256,8.232,1.55,13.351,1.55a58.806,58.806,0,0,0,31.365-8.687c15.839-9.953,28.763-21.939,56.034-51.4,8.673-9.356,17.517-15.029,26.659-15.029"
            transform="translate(-126.66 -18.583)"
            fill="#0051ff"
          />
        </svg>
